PathFileType	4	(X/Y/Z)	 staticP06.trc
DataRate	CameraRate	NumFrames	NumMarkers	Units	OrigDataRate	OrigDataStartFrame	OrigNumFrames
100	100	7	53	M	100	51	100
Frame#	Time	RM1D			RM5D			RM2B			LM1D			LM5D			LM2B			RCAL			LCAL			RLMAL			LLMAL			RMMAL			LMMAL			RSTL			LSTL			RFLE			RFME			LFME			LFLE			RHFIB			LHFIB			RTTUB			LTTUB			RSSH			LSSH			RTL			LTL			RTAP			RTAD			LTAP			LTAD			RTPP			RTPD			LTPP			LTPD			RPSIS			LPSIS			RASIS			LASIS			T10			T2			IJ			SA			RACR			LACR			RHLE			LHLE			RUSP			LUSP			RCB			LCB			IN			LHME			RHME			
		X1	Y1	Z1	X2	Y2	Z2	X3	Y3	Z3	X4	Y4	Z4	X5	Y5	Z5	X6	Y6	Z6	X7	Y7	Z7	X8	Y8	Z8	X9	Y9	Z9	X10	Y10	Z10	X11	Y11	Z11	X12	Y12	Z12	X13	Y13	Z13	X14	Y14	Z14	X15	Y15	Z15	X16	Y16	Z16	X17	Y17	Z17	X18	Y18	Z18	X19	Y19	Z19	X20	Y20	Z20	X21	Y21	Z21	X22	Y22	Z22	X23	Y23	Z23	X24	Y24	Z24	X25	Y25	Z25	X26	Y26	Z26	X27	Y27	Z27	X28	Y28	Z28	X29	Y29	Z29	X30	Y30	Z30	X31	Y31	Z31	X32	Y32	Z32	X33	Y33	Z33	X34	Y34	Z34	X35	Y35	Z35	X36	Y36	Z36	X37	Y37	Z37	X38	Y38	Z38	X39	Y39	Z39	X40	Y40	Z40	X41	Y41	Z41	X42	Y42	Z42	X43	Y43	Z43	X44	Y44	Z44	X45	Y45	Z45	X46	Y46	Z46	X47	Y47	Z47	X48	Y48	Z48	X49	Y49	Z49	X50	Y50	Z50	X51	Y51	Z51	X52	Y52	Z52	X53	Y53	Z53	
51	0.5100	-0.182198	0.041074	-0.145415	-0.215402	0.026047	-0.067441	-0.223880	0.056916	-0.111750	-0.186247	0.042695	-0.269932	-0.211732	0.024652	-0.351961	-0.218669	0.059864	-0.305130	-0.372563	0.037128	-0.123436	-0.373673	0.039052	-0.301434	-0.319575	0.071370	-0.084061	-0.325420	0.073784	-0.343415	-0.311512	0.086167	-0.163820	-0.307703	0.089211	-0.266763	-0.326700	0.033010	-0.158330	-0.323216	0.039987	-0.268491	-0.303384	0.454857	-0.062462	-0.322439	0.440171	-0.170298	-0.293691	0.445008	-0.260506	-0.288831	0.460533	-0.357428	-0.324234	0.404610	-0.048722	-0.317745	0.406349	-0.377210	-0.286794	0.391858	-0.109595	-0.271877	0.389923	-0.319274	-0.295060	0.318117	-0.128005	-0.283944	0.202541	-0.304081	-0.278307	0.662246	-0.027983	-0.281423	0.661365	-0.398682	-0.182747	0.699484	-0.105311	-0.210393	0.589564	-0.107410	-0.169853	0.711349	-0.318657	-0.194332	0.608364	-0.315363	-0.388874	0.657955	-0.098179	-0.394382	0.571027	-0.089873	-0.384647	0.674924	-0.314797	-0.388393	0.576624	-0.313733	-0.378755	0.968223	-0.177748	-0.380271	0.966511	-0.245890	-0.197733	0.911061	-0.086486	-0.184308	0.912611	-0.326022	-0.387790	1.129875	-0.212722	-0.357867	1.345369	-0.216755	-0.204012	1.321725	-0.209078	-0.189843	1.275253	-0.208202	-0.284107	1.335097	-0.027297	-0.292379	1.348120	-0.399651	-0.317593	1.024833	-0.009917	-0.315352	1.023713	-0.426611	-0.289955	0.804041	0.074191	-0.270686	0.804977	-0.512195	-0.151332	1.493085	-0.150636	-0.152227	1.488857	-0.285538	-0.311690	1.422540	-0.216995	-0.276562	1.020127	-0.370609	-0.266027	1.015136	-0.060483	
52	0.5200	-0.182196	0.041064	-0.145415	-0.215415	0.026070	-0.067429	-0.223876	0.056948	-0.111743	-0.186208	0.042709	-0.269923	-0.211741	0.024639	-0.351958	-0.218700	0.059862	-0.305158	-0.372553	0.037124	-0.123423	-0.373681	0.039065	-0.301436	-0.319566	0.071372	-0.084054	-0.325439	0.073770	-0.343415	-0.311517	0.086190	-0.163818	-0.307726	0.089198	-0.266755	-0.326663	0.032981	-0.158340	-0.323200	0.039990	-0.268464	-0.303385	0.454858	-0.062456	-0.322432	0.440156	-0.170288	-0.293713	0.444999	-0.260513	-0.288897	0.460514	-0.357448	-0.324205	0.404613	-0.048716	-0.317769	0.406345	-0.377222	-0.286834	0.391867	-0.109597	-0.271957	0.389904	-0.319272	-0.295087	0.318090	-0.128006	-0.284022	0.202580	-0.304106	-0.278312	0.662222	-0.027967	-0.281489	0.661340	-0.398704	-0.182756	0.699502	-0.105312	-0.210461	0.589530	-0.107432	-0.169917	0.711348	-0.318671	-0.194399	0.608361	-0.315399	-0.388910	0.657958	-0.098172	-0.394393	0.571022	-0.089864	-0.384680	0.674921	-0.314791	-0.388409	0.576620	-0.313724	-0.378794	0.968217	-0.177735	-0.380304	0.966480	-0.245867	-0.197762	0.911037	-0.086503	-0.184362	0.912593	-0.326040	-0.387827	1.129866	-0.212716	-0.357922	1.345359	-0.216749	-0.204076	1.321735	-0.209087	-0.189901	1.275278	-0.208229	-0.284190	1.335128	-0.027301	-0.292398	1.348123	-0.399667	-0.317597	1.024801	-0.009937	-0.315368	1.023705	-0.426627	-0.289989	0.804039	0.074121	-0.270704	0.804978	-0.512206	-0.151404	1.493108	-0.150595	-0.152229	1.488877	-0.285474	-0.311742	1.422537	-0.217010	-0.276606	1.020140	-0.370614	-0.266044	1.015136	-0.060498	
53	0.5300	-0.182205	0.041061	-0.145434	-0.215421	0.026060	-0.067436	-0.223892	0.056930	-0.111743	-0.186221	0.042711	-0.269934	-0.211715	0.024649	-0.351940	-0.218668	0.059849	-0.305156	-0.372553	0.037117	-0.123418	-0.373663	0.039036	-0.301421	-0.319545	0.071366	-0.084062	-0.325435	0.073766	-0.343421	-0.311504	0.086169	-0.163818	-0.307724	0.089215	-0.266780	-0.326686	0.033000	-0.158319	-0.323209	0.040002	-0.268478	-0.303379	0.454865	-0.062463	-0.322458	0.440155	-0.170298	-0.293765	0.445002	-0.260494	-0.288939	0.460517	-0.357493	-0.324277	0.404656	-0.048697	-0.317793	0.406356	-0.377227	-0.286806	0.391866	-0.109611	-0.272023	0.389909	-0.319292	-0.295069	0.318141	-0.128014	-0.283966	0.202595	-0.304089	-0.278328	0.662203	-0.027971	-0.281557	0.661339	-0.398703	-0.182757	0.699504	-0.105331	-0.210447	0.589541	-0.107458	-0.169944	0.711362	-0.318719	-0.194425	0.608361	-0.315423	-0.388946	0.657958	-0.098166	-0.394410	0.571012	-0.089851	-0.384687	0.674911	-0.314757	-0.388437	0.576608	-0.313736	-0.378837	0.968211	-0.177725	-0.380359	0.966494	-0.245865	-0.197780	0.911041	-0.086520	-0.184355	0.912631	-0.326045	-0.387882	1.129858	-0.212747	-0.357967	1.345346	-0.216767	-0.204126	1.321726	-0.209092	-0.189919	1.275260	-0.208220	-0.284212	1.335070	-0.027305	-0.292438	1.348102	-0.399682	-0.317612	1.024787	-0.009977	-0.315410	1.023702	-0.426626	-0.289926	0.803963	0.074000	-0.270716	0.804958	-0.512215	-0.151470	1.493146	-0.150562	-0.152287	1.488913	-0.285460	-0.311799	1.422529	-0.217012	-0.276632	1.020145	-0.370623	-0.266024	1.015110	-0.060537	
54	0.5400	-0.182193	0.041082	-0.145423	-0.215427	0.026067	-0.067441	-0.223888	0.056938	-0.111760	-0.186213	0.042720	-0.269951	-0.211748	0.024638	-0.351949	-0.218706	0.059879	-0.305165	-0.372570	0.037120	-0.123426	-0.373687	0.039032	-0.301418	-0.319575	0.071370	-0.084050	-0.325419	0.073750	-0.343405	-0.311526	0.086168	-0.163816	-0.307729	0.089199	-0.266783	-0.326667	0.032998	-0.158323	-0.323233	0.039994	-0.268473	-0.303404	0.454849	-0.062458	-0.322505	0.440176	-0.170305	-0.293792	0.444983	-0.260516	-0.288991	0.460509	-0.357489	-0.324283	0.404635	-0.048719	-0.317824	0.406348	-0.377231	-0.286841	0.391846	-0.109617	-0.271996	0.389921	-0.319274	-0.295086	0.318135	-0.128044	-0.283995	0.202560	-0.304117	-0.278312	0.662204	-0.027972	-0.281613	0.661345	-0.398720	-0.182826	0.699498	-0.105355	-0.210511	0.589558	-0.107468	-0.170027	0.711333	-0.318712	-0.194481	0.608359	-0.315463	-0.388974	0.657956	-0.098144	-0.394442	0.571006	-0.089848	-0.384721	0.674885	-0.314752	-0.388473	0.576577	-0.313745	-0.378875	0.968217	-0.177731	-0.380399	0.966480	-0.245865	-0.197802	0.911021	-0.086521	-0.184461	0.912590	-0.326078	-0.387936	1.129848	-0.212758	-0.358030	1.345331	-0.216780	-0.204163	1.321707	-0.209100	-0.189989	1.275251	-0.208226	-0.284298	1.335070	-0.027339	-0.292483	1.348101	-0.399690	-0.317623	1.024747	-0.010038	-0.315420	1.023696	-0.426647	-0.289965	0.803943	0.073925	-0.270734	0.804957	-0.512191	-0.151537	1.493142	-0.150577	-0.152292	1.488940	-0.285391	-0.311872	1.422508	-0.217031	-0.276668	1.020125	-0.370631	-0.266096	1.015116	-0.060572	
55	0.5500	-0.182200	0.041062	-0.145434	-0.215423	0.026070	-0.067446	-0.223909	0.056936	-0.111751	-0.186226	0.042720	-0.269984	-0.211737	0.024673	-0.351969	-0.218697	0.059874	-0.305186	-0.372577	0.037110	-0.123436	-0.373710	0.039050	-0.301445	-0.319565	0.071354	-0.084057	-0.325432	0.073764	-0.343423	-0.311533	0.086169	-0.163836	-0.307721	0.089213	-0.266779	-0.326675	0.032977	-0.158326	-0.323217	0.039967	-0.268490	-0.303430	0.454844	-0.062476	-0.322529	0.440156	-0.170314	-0.293831	0.444991	-0.260520	-0.288984	0.460525	-0.357470	-0.324270	0.404584	-0.048724	-0.317879	0.406337	-0.377237	-0.286896	0.391829	-0.109612	-0.272087	0.389930	-0.319291	-0.295119	0.318109	-0.128026	-0.283986	0.202566	-0.304087	-0.278411	0.662236	-0.027977	-0.281723	0.661346	-0.398741	-0.182856	0.699501	-0.105373	-0.210547	0.589559	-0.107469	-0.170039	0.711354	-0.318779	-0.194509	0.608366	-0.315476	-0.389013	0.657954	-0.098120	-0.394468	0.570991	-0.089845	-0.384800	0.674905	-0.314735	-0.388525	0.576578	-0.313759	-0.378899	0.968202	-0.177743	-0.380458	0.966484	-0.245855	-0.197812	0.911041	-0.086553	-0.184481	0.912622	-0.326079	-0.387987	1.129844	-0.212772	-0.358075	1.345313	-0.216802	-0.204203	1.321741	-0.209092	-0.190010	1.275274	-0.208228	-0.284355	1.335049	-0.027355	-0.292518	1.348094	-0.399711	-0.317616	1.024727	-0.010079	-0.315449	1.023691	-0.426678	-0.289982	0.803924	0.073813	-0.270729	0.804926	-0.512211	-0.151628	1.493138	-0.150567	-0.152348	1.488987	-0.285364	-0.311930	1.422502	-0.217044	-0.276682	1.020102	-0.370645	-0.266071	1.015104	-0.060601	
56	0.5600	-0.182186	0.041066	-0.145433	-0.215415	0.026076	-0.067463	-0.223903	0.056937	-0.111759	-0.186217	0.042721	-0.269976	-0.211713	0.024651	-0.351953	-0.218700	0.059866	-0.305197	-0.372608	0.037141	-0.123448	-0.373699	0.039033	-0.301449	-0.319574	0.071370	-0.084057	-0.325443	0.073743	-0.343428	-0.311522	0.086169	-0.163834	-0.307718	0.089203	-0.266781	-0.326688	0.032979	-0.158319	-0.323207	0.039972	-0.268487	-0.303459	0.454843	-0.062456	-0.322535	0.440152	-0.170309	-0.293852	0.444979	-0.260532	-0.289041	0.460531	-0.357502	-0.324311	0.404611	-0.048727	-0.317901	0.406337	-0.377255	-0.286893	0.391844	-0.109606	-0.272072	0.389910	-0.319336	-0.295142	0.318123	-0.128050	-0.284047	0.202563	-0.304107	-0.278370	0.662208	-0.027997	-0.281769	0.661338	-0.398778	-0.182887	0.699499	-0.105367	-0.210550	0.589582	-0.107476	-0.170141	0.711321	-0.318780	-0.194613	0.608349	-0.315512	-0.389044	0.657951	-0.098114	-0.394508	0.570998	-0.089843	-0.384839	0.674891	-0.314732	-0.388577	0.576568	-0.313775	-0.378928	0.968220	-0.177749	-0.380507	0.966498	-0.245870	-0.197840	0.911031	-0.086576	-0.184535	0.912582	-0.326107	-0.388037	1.129835	-0.212796	-0.358139	1.345318	-0.216826	-0.204250	1.321734	-0.209111	-0.190057	1.275265	-0.208268	-0.284414	1.335047	-0.027360	-0.292567	1.348083	-0.399731	-0.317644	1.024729	-0.010125	-0.315447	1.023675	-0.426702	-0.289991	0.803879	0.073743	-0.270742	0.804929	-0.512204	-0.151716	1.493132	-0.150540	-0.152434	1.488985	-0.285394	-0.311993	1.422502	-0.217064	-0.276712	1.020112	-0.370656	-0.266068	1.015125	-0.060636	
57	0.5700	-0.182215	0.041088	-0.145423	-0.215422	0.026056	-0.067466	-0.223907	0.056958	-0.111745	-0.186239	0.042738	-0.269975	-0.211745	0.024646	-0.351965	-0.218718	0.059887	-0.305193	-0.372598	0.037136	-0.123445	-0.373699	0.039039	-0.301458	-0.319567	0.071345	-0.084069	-0.325454	0.073771	-0.343442	-0.311552	0.086168	-0.163845	-0.307725	0.089215	-0.266803	-0.326686	0.032995	-0.158331	-0.323212	0.039974	-0.268500	-0.303473	0.454863	-0.062476	-0.322579	0.440146	-0.170325	-0.293874	0.444990	-0.260536	-0.289053	0.460524	-0.357489	-0.324284	0.404612	-0.048725	-0.317928	0.406325	-0.377257	-0.286916	0.391846	-0.109624	-0.272127	0.389877	-0.319313	-0.295143	0.318099	-0.128023	-0.284042	0.202562	-0.304077	-0.278420	0.662228	-0.028017	-0.281857	0.661335	-0.398815	-0.182926	0.699480	-0.105381	-0.210582	0.589600	-0.107459	-0.170128	0.711352	-0.318816	-0.194607	0.608365	-0.315532	-0.389073	0.657960	-0.098107	-0.394521	0.570999	-0.089823	-0.384914	0.674917	-0.314736	-0.388615	0.576557	-0.313772	-0.378956	0.968223	-0.177761	-0.380543	0.966498	-0.245867	-0.197869	0.911043	-0.086586	-0.184544	0.912586	-0.326119	-0.388084	1.129830	-0.212817	-0.358200	1.345315	-0.216841	-0.204295	1.321731	-0.209137	-0.190086	1.275274	-0.208279	-0.284458	1.335009	-0.027387	-0.292604	1.348089	-0.399750	-0.317652	1.024732	-0.010165	-0.315478	1.023679	-0.426715	-0.290030	0.803879	0.073680	-0.270716	0.804900	-0.512216	-0.151807	1.493156	-0.150512	-0.152506	1.488990	-0.285382	-0.312045	1.422499	-0.217087	-0.276701	1.020080	-0.370674	-0.266051	1.015113	-0.060646	
